# xmcd
#
# Track frame offsets:
#	150
#	15057
#	24558
#	35759
#	38002
#	47406
#	70344
#	78933
#	93014
#	101707
#	117526
#
# Disc length: 1695 seconds
#
# Revision: 1
# Processed by: cddbd v1.5.1PL0 Copyright (c) Steve Scherf et al.
# Submitted via: audiograbber 1.80
#
DISCID=7b069d0b
DTITLE=Dissection Corpse - Live Hory 2003
DYEAR=1900
DGENRE=
TTITLE0=Zmrtvychvstani
TTITLE1=Smrt
TTITLE2=Do prdele
TTITLE3=Hnijici tela mrtvych z.
TTITLE4=Vrah
TTITLE5=Gezzer
TTITLE6=Co je
TTITLE7=Psychopat
TTITLE8=Masova vrazda
TTITLE9=Morova epidemie
TTITLE10=Masakr
EXTD=
EXTT0=
EXTT1=
EXTT2=
EXTT3=
EXTT4=
EXTT5=
EXTT6=
EXTT7=
EXTT8=
EXTT9=
EXTT10=
PLAYORDER=
